<svg width="586" height="389" fill="none" xmlns="http://www.w3.org/2000/svg"><path d="M407.85 329.356H94.568c-10.686 0-19.417-8.731-19.417-19.417V21.417C75.15 10.731 83.882 2 94.568 2h415.19c10.686 0 19.417 8.731 19.417 19.417v200.167" stroke="#FAF3E7" stroke-width="3" stroke-miterlimit="10" stroke-linecap="round" stroke-linejoin="round"/><path d="M75.15 30.54h433.305" stroke="#fff" stroke-width="3" stroke-miterlimit="10" stroke-linecap="round" stroke-linejoin="round"/><path d="M392.732 248.69h-139.83v-43.786h139.7c12.12 0 21.893 9.774 21.893 21.893.131 11.989-9.773 21.893-21.763 21.893z" fill="#231F20"/><path d="M300.729 388.13H145.131V156.035c0-16.419 13.292-29.712 29.712-29.712h183.356c-13.553 0-24.369 10.947-24.369 24.369V355.03c0 18.244-14.856 33.1-33.101 33.1z" fill="#FFC900"/><path d="M382.568 248.3h-48.869v-97.608c0-13.553 10.946-24.369 24.369-24.369 13.553 0 24.369 10.947 24.369 24.369V248.3h.131z" fill="#FAF3E7"/><path d="M271.798 361.415h22.545c12.12 0 21.893-9.774 21.893-21.893 0-12.12-9.773-21.894-21.893-21.894h-42.744" fill="#231F20"/><path d="M304.638 388.13H131.056c-19.417 0-35.316-15.768-35.316-35.316 0-19.417 15.769-35.315 35.316-35.315h163.287c-12.771 0-23.196 10.425-23.196 23.196v13.814c0 18.635 14.986 33.621 33.491 33.621z" fill="#FAF3E7"/><path d="M310.242 216.763H166.241v67.504h144.001v-67.504zm-144.001 44.96h144m-144-22.415h144m-47.956-22.545v67.504m-48.088-67.504v67.504" stroke="#FAF3E7" stroke-width="3" stroke-miterlimit="10" stroke-linecap="round" stroke-linejoin="round"/><path d="M181.358 187.572c9.285 0 16.811-7.526 16.811-16.81 0-9.285-7.526-16.811-16.811-16.811-9.284 0-16.811 7.526-16.811 16.811 0 9.284 7.527 16.81 16.811 16.81z" fill="#231F20"/><path d="M194.78 181.057c-3.127 4.04-7.949 6.646-13.422 6.646-5.474 0-10.295-2.606-13.423-6.646 3.128-4.04 7.949-6.646 13.423-6.646 5.473 0 10.295 2.606 13.422 6.646zm-13.422-9.122a7.038 7.038 0 100-14.076 7.038 7.038 0 000 14.076z" fill="#EFE9DD"/><path d="M565.664 346.689c-13.814 23.587-39.486 39.355-68.807 39.355-44.048 0-79.754-35.706-79.754-79.754v-3.779m155.859 27.627a85.334 85.334 0 01-2.737 7.428m-150.516-50.954c8.862-34.403 40.007-59.815 77.148-59.815 44.047 0 79.754 35.707 79.754 79.754v4.822" stroke="#FAF3E7" stroke-width="3" stroke-miterlimit="10" stroke-linecap="round" stroke-linejoin="round"/><path d="M407.851 311.373l9.382-8.731 8.341 8.731m143.088-8.731l7.949 8.731 7.038-8.731" stroke="#FAF3E7" stroke-width="3" stroke-miterlimit="10" stroke-linecap="round" stroke-linejoin="round"/><path d="M496.858 370.146c35.194 0 63.725-28.531 63.725-63.725 0-35.195-28.531-63.725-63.725-63.725s-63.725 28.53-63.725 63.725c0 35.194 28.531 63.725 63.725 63.725z" fill="#37598C"/><path d="M496.858 355.941c27.35 0 49.521-22.171 49.521-49.52 0-27.35-22.171-49.521-49.521-49.521-27.349 0-49.52 22.171-49.52 49.521 0 27.349 22.171 49.52 49.52 49.52z" stroke="#FAF3E7" stroke-width="3" stroke-miterlimit="10" stroke-linecap="round" stroke-linejoin="round"/><path d="M496.858 275.927v30.494h24.761" stroke="#FAF3E7" stroke-width="3" stroke-miterlimit="10" stroke-linecap="round" stroke-linejoin="round"/><path d="M1 388.39h17.332m19.548 0h379.483" stroke="#fff" stroke-miterlimit="10" stroke-linecap="round" stroke-linejoin="round"/><path d="M176.406 91.659c8.277 0 14.987-6.71 14.987-14.987 0-8.277-6.71-14.986-14.987-14.986-8.276 0-14.986 6.71-14.986 14.986 0 8.277 6.71 14.987 14.986 14.987zm261.025-5.995H231.139c-6.125 0-10.947-4.952-10.947-10.947 0-6.124 4.952-10.946 10.947-10.946h206.292c6.125 0 10.946 4.952 10.946 10.947.131 5.994-4.821 10.946-10.946 10.946z" fill="#37598C"/><path d="M98.607 21.157a4.04 4.04 0 100-8.08 4.04 4.04 0 000 8.08zm17.984-.001a4.04 4.04 0 100-8.078 4.04 4.04 0 000 8.078zm17.983 0a4.04 4.04 0 100-8.08 4.04 4.04 0 000 8.08z" fill="#FAF3E7"/><path d="M427.267 388.13h11.858" stroke="#fff" stroke-miterlimit="10" stroke-linecap="round" stroke-linejoin="round"/></svg>