<svg width="130" height="106" fill="none" xmlns="http://www.w3.org/2000/svg"><path fill-rule="evenodd" clip-rule="evenodd" d="M.187.13H129.4v105.729H.187V.129z" fill="#CECCCA"/><path fill-rule="evenodd" clip-rule="evenodd" d="M11.363 4.518h106.859a6.791 6.791 0 016.773 6.773V27.19H4.59v-15.9a6.789 6.789 0 016.773-6.772zM64.025 35.41c-.144.254-.541.731-.748 1.001-.206.27-.46.668-.731 1.018l-4.404 6.153c-.239.334-5.66 7.743-5.883 8.252h1.479l-8.665 27.298h5.47L45.55 95.175l11.288-15.613h-1.463c.276-1.08.616-2.141 1.018-3.18l3.18-9.397 3.323.302c0 .446-1.463 5.104-1.702 5.9-.238.794-1.7 5.5-1.717 5.898h4.945l-5.167 16.742 3.18-4.087c.556-.747 9.014-11.828 9.174-12.178h-1.59a27.641 27.641 0 011.08-3.403c.382-1.16.748-2.29 1.145-3.418.748-2.29 1.59-4.579 2.29-6.837.7-2.257 1.51-4.547 2.29-6.852.524-1.59 1.94-5.55 2.289-6.853h-5.867l5.024-16.662c-.46.19-1.272 1.59-1.59 1.94L66.346 51.785h1.59l-3.864 12.258-3.355-.19c-.11-.605 3.18-10.017 3.578-11.67H58.81l5.183-16.743.032-.031zM30.27 67.32c1.43 0 3.18-.557 3.02 1.383a48.982 48.982 0 01-2.527 6.677 2.687 2.687 0 01-3.419.493L30.27 67.4v-.08zm4.23-12.386c1.398-.095 3.179-.509 3.02 1.352a21.877 21.877 0 01-1.177 3.322 21.857 21.857 0 01-1.32 3.18c-.762 1.145-1.907 1.002-3.402.573.16-1.018 2.353-6.9 2.878-8.49v.063zm9.873 10.605c.62-.398 1.208-.54 1.59-1.097.381-.557 1.7-5.152 1.891-5.772 1.59-5.151 2.799-6.55-.556-6.55-1.495 0-19.572-.111-20.51 0-.986 1.335-7.489 20.669-8.427 23.515a7.821 7.821 0 00-.826 3.482h22.847l2.639-6.726c.445-1.144.89-2.226 1.304-3.354.779-2.02.97-2.1.08-3.482l-.032-.016zm53.924-10.828c.463-.774.74-1.644.811-2.544h-16.01c-.477 1.59-1.193 3.18-1.78 4.77-2.402 6.36-4.628 13.038-6.806 19.493-1.08 3.18-.986 2.718 2.512 2.718 4.261 0 8.745.223 12.974 0 .46-.893.69-1.888.668-2.893l-5.31-.414c.127-.508 2.766-7.95 3.18-8.744h5.532c.487-.909.77-1.912.827-2.942l-5.31-.19 3.18-9a46.257 46.257 0 015.612-.238l-.08-.016zm8.126 15.359c.811-2.464 5.756-17.25 5.708-17.664l-10.398-.27-2.321 6.725c-.795 2.21-1.59 4.404-2.322 6.63l-3.498 10.016a6.646 6.646 0 00-.7 3.61l15.9.127a5.357 5.357 0 00.938-3.069L104.452 76l1.923-5.93h.048z" fill="#4C4A48"/><path fill-rule="evenodd" clip-rule="evenodd" d="M89.059 11.386h1.86c-.318 1.701-1.94 5.899-1.685 7.425a50.592 50.592 0 003.259 5.994h3.18c-.16-.572-2.814-4.897-3.371-5.93-.556-1.034.238-2.846.509-3.848.256-1.232.585-2.448.985-3.641h3.276l-1.415 5.183c-.255.906-.414.859-1.431.859l-.588 1.59c4.69 0 4.26.588 5.707-4.93.239-.874.589-1.907.748-2.766h11.527l-.271 1.13c-1.478.126-2.575-.573-3.18.762-.81-.731 0-.731-2.098-.731-4.214 0-4.134-.509-5.199 3.37-.589 2.131-2.13 7.203-2.496 8.968 3.688 0 2.782.62 3.688-2.592.27-.938.509-1.844.763-2.75.43-1.815.96-3.604 1.59-5.358h1.59c.223.826-.858 3.784-.986 4.865 2.894 0 2.767.206 2.958-.477.266-1.468.659-2.91 1.176-4.309.227-.092.471-.136.716-.127 1.415 0 1.065.302.381 2.687-.572 1.955-1.971 6.503-2.273 7.95 3.497 0 2.83.492 3.418-1.59.159-.573.334-1.145.493-1.702l2.862-10.16h1.987l.477-1.669h-27.68l-.477 1.59v.207zM18.506 20.64a18.6 18.6 0 01.907-3.96 22.03 22.03 0 011.32 4.102 9.153 9.153 0 01-2.227-.143zm5.2-6.36a24.238 24.238 0 01-1.002 3.386l-1.177-3.339h2.179v-.047zm4.944-6.36h1.59a4.515 4.515 0 01-.365 1.59H28.14l.477-1.685.032.095zm4.277 1.701c0-.922.843-2.146.096-2.878-.748-.73-2.513-.35-3.45-.365-4.373-.112-3.323.54-4.389 3.18H13.005c-.286.175-.08-.143-.27.397l-.238 1.288h12.21l-.334 1.208a36.557 36.557 0 00-6.025.318c-.923.302-1.002.97-1.288 1.908-.286.938-.493 1.59-.732 2.385-.35 1.272-1.494 3.88-.636 4.865.525.588 1.797.43 2.703.43h3.085l-.652 2.352c3.498 0 2.862.51 3.466-1.59.715-2.56 2.989-10 3.37-11.813h1.797c-.413 1.75-3.784 12.863-3.673 13.499l2.75.127a7.388 7.388 0 00.557-1.765l2.878-10.27c.572-2.02-.207-1.59 3.387-1.59.206-.539.35-1.099.429-1.67h-2.862v-.016zm32.239.111H38.137c-.366.255-.493 1.193-.509 1.59h1.59c-.397 1.415-1.94 6.122-1.7 7.393a59.657 59.657 0 003.179 6.01h3.18a28.905 28.905 0 00-1.686-3.005c-2.496-4.197-2.241-2.814-.667-8.76l.381-1.383c.127-.287 0-.175.239-.287h3.18c-.207 1.098-.668 2.449-.954 3.53-.748 2.719-.477 2.4-1.956 2.528l-.509 1.59c2.957 0 4.213.604 4.929-2.21.461-1.733 1.129-3.752 1.463-5.501h10.795c-.238 1.4-1.749 6.264-2.305 8.315-.35 1.272 0 1.002-2.083.986h-.827c-1.32 0-.524-1.351.112-3.387a25.84 25.84 0 011.033-3.18h1.336l.54-1.59-6.63-.11c-.302.143 0-.16-.286.35l-.334 1.287h2.147c-.318 1.288-1.59 5.596-1.718 6.36-.222 2.035 1.177 1.892 2.052 1.908 1.32 0 2.655 0 4.006.095l-.62 2.417h2.941c.239-1.225 2.83-10.033 3.403-11.94.572-1.909 0-1.59 2.973-1.59l.334-1.59v.174zM81.8 9.717c.04-.601.209-1.187.494-1.718h1.383l-.207.875c.931.138 1.88.106 2.799-.095a1.448 1.448 0 00-.382-2.338 24.979 24.979 0 00-3.498-.08c-3.88 0-2.67.59-3.863 3.34h-11.13l-.35 1.685h11.13l-.398 1.129c-2.941.46-4.77-1.224-5.517 2.353-.19.922-.874 2.623.144 3.053.73.302 2.75 0 3.624.206a4.77 4.77 0 01-.27 1.988c-.238.747-.683.62-1.478.508-.382-.54-.493-1.065-2.067-.826-3.021.445-1.225 2.687-1.384 3.354-.159.668-.508 1.4-.683 2.13 3.18 0 2.893.224 3.18-.62l.556-2.193c3.546.111 4.023.604 5.04-2.862 1.304-4.404-.763-2.894-3.911-3.291a4.166 4.166 0 01.238-1.733c.223-.604.748-.493 1.479-.461h3.848l.795-2.799h5.58l.382-1.669-5.533.064z" fill="#CECCCA"/></svg>