<svg width="187" height="29" viewBox="0 0 187 29" fill="none" xmlns="http://www.w3.org/2000/svg">
<path d="M18.4161 12.544H28.5601C29.1041 12.544 29.5521 12.096 29.5521 11.5521V1.44006C29.5521 0.896086 29.1041 0.448114 28.5601 0.448114L18.4161 0.447891C17.8722 0.447891 17.4242 0.89588 17.4242 1.43983V11.5838C17.4242 12.128 17.8722 12.5441 18.4161 12.5441V12.544Z" fill="black"/>
<path d="M30.2561 26.88L24.4001 16.704C23.9841 16 22.9602 16 22.5441 16.704L16.6881 26.88C16.2721 27.584 16.7841 28.5119 17.616 28.5119H29.328C30.16 28.48 30.672 27.5841 30.2559 26.88H30.2561Z" fill="black"/>
<path d="M13.4881 6.496C13.4881 10.0835 10.5797 12.992 6.99215 12.992C3.40466 12.992 0.496147 10.0835 0.496147 6.496C0.496147 2.90828 3.4046 0 6.99215 0C10.5799 0 13.4881 2.90846 13.4881 6.496Z" fill="black"/>
<path d="M10.8641 16.64C10.6722 16.3199 10.3521 16.1279 10.0001 16.1279H4.01609C3.66408 16.1279 3.31209 16.3199 3.15203 16.64L0.143974 21.8239C-0.0479914 22.144 -0.0479914 22.5279 0.143974 22.8159L3.11986 27.9998C3.31183 28.3199 3.63191 28.5119 3.98392 28.5119H9.96792C10.3199 28.5119 10.6719 28.3199 10.832 27.9998L13.84 22.8159C14.032 22.4958 14.032 22.1119 13.84 21.8239L10.8641 16.64Z" fill="black"/>
<path d="M44.0162 17.18L51.0362 9.28H44.2562V6H56.3962V8.82L49.3762 16.72H56.3962V20H44.0162V17.18ZM57.981 12.08H64.541V15.42H57.981V12.08ZM73.3251 20.28C72.3251 20.28 71.3851 20.1 70.5051 19.74C69.6251 19.38 68.8584 18.88 68.2051 18.24C67.5651 17.5867 67.0518 16.82 66.6651 15.94C66.2918 15.0467 66.1051 14.08 66.1051 13.04V13C66.1051 11.9867 66.2918 11.04 66.6651 10.16C67.0384 9.26667 67.5518 8.49333 68.2051 7.84C68.8584 7.17333 69.6318 6.65333 70.5251 6.28C71.4318 5.90667 72.4184 5.72 73.4851 5.72C74.2051 5.72 74.8584 5.79333 75.4451 5.94C76.0318 6.07333 76.5651 6.27333 77.0451 6.54C77.5384 6.79333 77.9784 7.1 78.3651 7.46C78.7651 7.82 79.1184 8.21333 79.4251 8.64L76.5051 10.9C76.1051 10.3933 75.6651 9.99333 75.1851 9.7C74.7051 9.40667 74.1251 9.26 73.4451 9.26C72.9518 9.26 72.4984 9.36 72.0851 9.56C71.6851 9.74667 71.3384 10.0067 71.0451 10.34C70.7518 10.6733 70.5184 11.0667 70.3451 11.52C70.1851 11.9733 70.1051 12.4533 70.1051 12.96V13C70.1051 13.52 70.1851 14.0133 70.3451 14.48C70.5184 14.9333 70.7518 15.3267 71.0451 15.66C71.3384 15.9933 71.6851 16.26 72.0851 16.46C72.4984 16.6467 72.9518 16.74 73.4451 16.74C73.8051 16.74 74.1318 16.7 74.4251 16.62C74.7318 16.54 75.0051 16.4267 75.2451 16.28C75.4984 16.12 75.7318 15.94 75.9451 15.74C76.1718 15.5267 76.3918 15.2933 76.6051 15.04L79.5251 17.12C79.1918 17.5733 78.8251 17.9933 78.4251 18.38C78.0384 18.7667 77.5918 19.1 77.0851 19.38C76.5918 19.66 76.0318 19.88 75.4051 20.04C74.7918 20.2 74.0984 20.28 73.3251 20.28ZM86.5345 17.04C86.8811 17.04 87.1945 16.98 87.4745 16.86C87.7545 16.7267 87.9878 16.5533 88.1745 16.34C88.3745 16.1133 88.5278 15.8533 88.6345 15.56C88.7411 15.2667 88.7945 14.96 88.7945 14.64V14.6C88.7945 14.2667 88.7345 13.9533 88.6145 13.66C88.5078 13.3667 88.3478 13.1133 88.1345 12.9C87.9345 12.6733 87.6945 12.4933 87.4145 12.36C87.1345 12.2267 86.8278 12.16 86.4945 12.16C86.1478 12.16 85.8345 12.2267 85.5545 12.36C85.2745 12.48 85.0345 12.6533 84.8345 12.88C84.6478 13.0933 84.5011 13.3467 84.3945 13.64C84.2878 13.9333 84.2345 14.24 84.2345 14.56V14.6C84.2345 14.9333 84.2878 15.2467 84.3945 15.54C84.5145 15.8333 84.6745 16.0933 84.8745 16.32C85.0878 16.5333 85.3345 16.7067 85.6145 16.84C85.8945 16.9733 86.2011 17.04 86.5345 17.04ZM86.4945 20.26C85.6278 20.26 84.8278 20.1133 84.0945 19.82C83.3745 19.5267 82.7478 19.1267 82.2145 18.62C81.6811 18.1 81.2678 17.5 80.9745 16.82C80.6811 16.14 80.5345 15.4133 80.5345 14.64V14.6C80.5345 13.8267 80.6811 13.1 80.9745 12.42C81.2811 11.7267 81.7011 11.1267 82.2345 10.62C82.7678 10.1 83.4011 9.69333 84.1345 9.4C84.8678 9.09333 85.6678 8.94 86.5345 8.94C87.4011 8.94 88.1945 9.09333 88.9145 9.4C89.6478 9.69333 90.2811 10.0933 90.8145 10.6C91.3478 11.1067 91.7611 11.7 92.0545 12.38C92.3478 13.06 92.4945 13.7867 92.4945 14.56V14.6C92.4945 15.3733 92.3411 16.1067 92.0345 16.8C91.7411 17.48 91.3278 18.08 90.7945 18.6C90.2611 19.1067 89.6278 19.5133 88.8945 19.82C88.1611 20.1133 87.3611 20.26 86.4945 20.26ZM94.0995 9.18H97.8995V10.66C98.2461 10.2067 98.6795 9.80667 99.1995 9.46C99.7195 9.11333 100.359 8.94 101.119 8.94C101.839 8.94 102.466 9.09333 102.999 9.4C103.533 9.70667 103.946 10.14 104.239 10.7C104.706 10.1533 105.226 9.72667 105.799 9.42C106.373 9.1 107.059 8.94 107.859 8.94C109.019 8.94 109.926 9.28667 110.579 9.98C111.233 10.66 111.559 11.6333 111.559 12.9V20H107.759V14.12C107.759 13.52 107.626 13.0733 107.359 12.78C107.093 12.4733 106.733 12.32 106.279 12.32C105.826 12.32 105.453 12.4733 105.159 12.78C104.866 13.0733 104.719 13.52 104.719 14.12V20H100.919V14.12C100.919 13.52 100.786 13.0733 100.519 12.78C100.253 12.4733 99.8928 12.32 99.4395 12.32C98.9861 12.32 98.6128 12.4733 98.3195 12.78C98.0395 13.0733 97.8995 13.52 97.8995 14.12V20H94.0995V9.18ZM113.514 9.18H117.314V10.66C117.66 10.2067 118.094 9.80667 118.614 9.46C119.134 9.11333 119.774 8.94 120.534 8.94C121.254 8.94 121.88 9.09333 122.414 9.4C122.947 9.70667 123.36 10.14 123.654 10.7C124.12 10.1533 124.64 9.72667 125.214 9.42C125.787 9.1 126.474 8.94 127.274 8.94C128.434 8.94 129.34 9.28667 129.994 9.98C130.647 10.66 130.974 11.6333 130.974 12.9V20H127.174V14.12C127.174 13.52 127.04 13.0733 126.774 12.78C126.507 12.4733 126.147 12.32 125.694 12.32C125.24 12.32 124.867 12.4733 124.574 12.78C124.28 13.0733 124.134 13.52 124.134 14.12V20H120.334V14.12C120.334 13.52 120.2 13.0733 119.934 12.78C119.667 12.4733 119.307 12.32 118.854 12.32C118.4 12.32 118.027 12.4733 117.734 12.78C117.454 13.0733 117.314 13.52 117.314 14.12V20H113.514V9.18ZM138.488 17.04C138.834 17.04 139.148 16.98 139.428 16.86C139.708 16.7267 139.941 16.5533 140.128 16.34C140.328 16.1133 140.481 15.8533 140.588 15.56C140.694 15.2667 140.748 14.96 140.748 14.64V14.6C140.748 14.2667 140.688 13.9533 140.568 13.66C140.461 13.3667 140.301 13.1133 140.088 12.9C139.888 12.6733 139.648 12.4933 139.368 12.36C139.088 12.2267 138.781 12.16 138.448 12.16C138.101 12.16 137.788 12.2267 137.508 12.36C137.228 12.48 136.988 12.6533 136.788 12.88C136.601 13.0933 136.454 13.3467 136.348 13.64C136.241 13.9333 136.188 14.24 136.188 14.56V14.6C136.188 14.9333 136.241 15.2467 136.348 15.54C136.468 15.8333 136.628 16.0933 136.828 16.32C137.041 16.5333 137.288 16.7067 137.568 16.84C137.848 16.9733 138.154 17.04 138.488 17.04ZM138.448 20.26C137.581 20.26 136.781 20.1133 136.048 19.82C135.328 19.5267 134.701 19.1267 134.168 18.62C133.634 18.1 133.221 17.5 132.928 16.82C132.634 16.14 132.488 15.4133 132.488 14.64V14.6C132.488 13.8267 132.634 13.1 132.928 12.42C133.234 11.7267 133.654 11.1267 134.188 10.62C134.721 10.1 135.354 9.69333 136.088 9.4C136.821 9.09333 137.621 8.94 138.488 8.94C139.354 8.94 140.148 9.09333 140.868 9.4C141.601 9.69333 142.234 10.0933 142.768 10.6C143.301 11.1067 143.714 11.7 144.008 12.38C144.301 13.06 144.448 13.7867 144.448 14.56V14.6C144.448 15.3733 144.294 16.1067 143.988 16.8C143.694 17.48 143.281 18.08 142.748 18.6C142.214 19.1067 141.581 19.5133 140.848 19.82C140.114 20.1133 139.314 20.26 138.448 20.26ZM151.593 17.06C151.899 17.06 152.186 17 152.453 16.88C152.719 16.76 152.953 16.5933 153.153 16.38C153.353 16.1533 153.506 15.8933 153.613 15.6C153.733 15.2933 153.793 14.96 153.793 14.6V14.56C153.793 14.2 153.733 13.8733 153.613 13.58C153.506 13.2867 153.353 13.0333 153.153 12.82C152.953 12.5933 152.719 12.42 152.453 12.3C152.186 12.18 151.899 12.12 151.593 12.12C151.286 12.12 150.999 12.18 150.733 12.3C150.466 12.42 150.233 12.5867 150.033 12.8C149.833 13.0133 149.673 13.2733 149.553 13.58C149.433 13.8733 149.373 14.2 149.373 14.56V14.6C149.373 14.96 149.433 15.2933 149.553 15.6C149.673 15.8933 149.833 16.1533 150.033 16.38C150.233 16.5933 150.466 16.76 150.733 16.88C150.999 17 151.286 17.06 151.593 17.06ZM150.433 20.24C149.793 20.24 149.179 20.1133 148.593 19.86C148.019 19.5933 147.513 19.22 147.073 18.74C146.646 18.26 146.299 17.6733 146.033 16.98C145.779 16.2867 145.653 15.5067 145.653 14.64V14.6C145.653 13.72 145.779 12.9333 146.033 12.24C146.286 11.5333 146.633 10.94 147.073 10.46C147.513 9.96667 148.019 9.59333 148.593 9.34C149.166 9.07333 149.773 8.94 150.413 8.94C151.226 8.94 151.893 9.1 152.413 9.42C152.933 9.72667 153.373 10.0867 153.733 10.5V5.4H157.533V20H153.733V18.56C153.359 19.0133 152.919 19.4067 152.413 19.74C151.906 20.0733 151.246 20.24 150.433 20.24ZM159.648 9.18H163.448V20H159.648V9.18ZM159.568 5.4H163.528V8.2H159.568V5.4ZM169.864 20.22C168.718 20.22 167.824 19.9467 167.184 19.4C166.544 18.8533 166.224 17.9333 166.224 16.64V12.24H164.944V9.18H166.224V6.44H170.024V9.18H172.544V12.24H170.024V15.9C170.024 16.2867 170.111 16.5667 170.284 16.74C170.458 16.9 170.718 16.98 171.064 16.98C171.318 16.98 171.564 16.9467 171.804 16.88C172.044 16.8133 172.278 16.7267 172.504 16.62V19.6C172.158 19.7867 171.764 19.9333 171.324 20.04C170.884 20.16 170.398 20.22 169.864 20.22ZM177.378 23.26C176.698 23.26 176.071 23.1733 175.498 23C174.938 22.8267 174.404 22.6 173.898 22.32L175.078 19.66C175.384 19.8467 175.684 19.9867 175.978 20.08C176.271 20.1867 176.524 20.24 176.738 20.24C176.924 20.24 177.084 20.2067 177.218 20.14C177.364 20.0867 177.498 19.9733 177.618 19.8L173.378 9.18H177.358L179.518 15.7L181.558 9.18H185.458L181.498 19.74C181.258 20.3667 181.011 20.9 180.758 21.34C180.504 21.7933 180.218 22.16 179.898 22.44C179.578 22.72 179.211 22.9267 178.798 23.06C178.384 23.1933 177.911 23.26 177.378 23.26Z" fill="black"/>
</svg>
